<svg version="1.1" id="Layer_1" xmlns="http://www.w3.org/2000/svg" xmlns:xlink="http://www.w3.org/1999/xlink" x="0px" y="0px"
	 width="100%" viewBox="0 0 1471 1069" enable-background="new 0 0 1471 1069" xml:space="preserve">
<path fill="none" opacity="1.000000" stroke="#000000" stroke-linecap="round" stroke-linejoin="round" stroke-width="3.000000"
	d="
M588.000000,250.500000 
	C583.445374,266.245575 578.679626,281.967041 578.043213,298.501678 
	C577.651001,308.692352 580.901794,318.045532 585.493652,327.003265 
	C591.938049,339.574860 596.556702,352.886688 599.859985,366.533905 
	C603.309143,380.784149 605.611633,395.278534 606.633850,409.990692 
	C607.315674,419.803925 605.806396,429.342133 605.091797,439.006775 
	C604.416809,448.136047 602.620483,457.033997 601.108521,466.018250 
	C599.255493,477.029297 596.214905,487.739746 593.356201,498.461670 
	C588.277771,517.508789 582.657959,536.442749 580.130676,556.016846 
	C578.248108,570.597961 577.377136,585.182556 579.723267,600.043701 
	C581.935486,614.056946 580.783081,628.412048 578.468201,642.494751 
	C575.742249,659.078247 570.035034,674.886047 565.555359,691.015381 
	C563.079651,699.929565 560.887451,708.945984 559.131287,718.025391 
	C558.382202,721.898132 558.130798,726.093506 559.934204,730.030151 
	C560.375916,730.994446 560.440857,732.594299 559.929443,733.458252 
	C556.232666,739.702820 558.920776,745.970703 560.158691,751.967224 
	C561.936096,760.577454 563.230591,769.377319 566.963562,777.516724 
	C569.011536,781.982056 567.598877,786.840210 568.053040,791.494812 
	C568.169067,792.683960 567.364014,793.325012 566.918335,793.940857 
	C565.369019,796.081665 554.696106,798.461365 552.001343,797.496338 
	C548.547546,796.259521 544.999512,797.481323 541.489685,797.093628 
	C539.634155,796.888611 537.947937,796.729065 536.500000,795.500000 
"/>
<path fill="none" opacity="1.000000" stroke="#000000" stroke-linecap="round" stroke-linejoin="round" stroke-width="3.000000"
	d="
M842.000000,205.500000 
	C841.747986,206.979660 842.303406,208.251404 842.996643,209.501862 
	C846.598267,215.997864 843.903809,222.711777 842.677795,228.936539 
	C841.594482,234.436722 842.345276,239.609039 844.297546,243.863464 
	C847.593140,251.045319 847.985474,258.673492 849.913757,266.022644 
	C851.502747,272.078491 852.376709,278.325500 853.491089,284.501617 
	C855.989319,298.346924 855.226868,311.899506 848.443237,324.469360 
	C838.268921,343.322021 832.914490,363.724091 829.179932,384.532288 
	C827.207886,395.520416 825.477478,406.729614 826.062012,417.996796 
	C826.705017,430.389496 828.036072,442.699097 829.760559,455.033478 
	C833.140625,479.209991 840.834351,502.295166 846.143188,525.967896 
	C849.080383,539.065063 851.530579,552.156067 853.163086,565.480042 
	C854.169128,573.691162 854.807556,581.903748 853.808716,589.976318 
	C852.714661,598.817993 852.061523,607.606079 851.949829,616.499390 
	C851.728149,634.143250 855.031494,651.259399 860.131592,667.959778 
	C864.981628,683.841003 869.438110,699.816345 872.759338,716.049255 
	C873.712891,720.709229 874.209595,726.105042 872.052002,731.022827 
	C871.684082,731.861389 871.626648,733.216675 872.060791,733.964722 
	C874.809570,738.700867 873.570740,743.243469 872.062012,748.019592 
	C869.331238,756.664734 867.508850,765.569214 864.145264,774.057556 
	C862.998657,776.951050 861.709839,779.888062 860.737610,782.915771 
	C858.806274,788.930786 861.173279,792.738770 865.000000,796.500000 
"/>
<path fill="none" opacity="1.000000" stroke="#000000" stroke-linecap="round" stroke-linejoin="round" stroke-width="3.000000"
	d="
M459.000000,210.500000 
	C460.792023,221.660904 463.529968,232.596771 466.439514,243.516113 
	C470.742615,259.665161 474.982574,275.908997 476.794250,292.522430 
	C477.951477,303.134430 476.237579,313.710236 471.054535,323.528778 
	C461.830139,341.003052 456.182770,359.759827 451.991150,378.998077 
	C447.704529,398.672394 447.220123,418.459259 448.866272,438.510986 
	C450.748718,461.440674 456.851379,483.392365 462.460876,505.509918 
	C466.167419,520.124207 470.078003,534.729065 472.750244,549.545044 
	C474.039307,556.692261 474.301422,564.216309 475.281860,571.461853 
	C476.364441,579.462219 475.477417,587.223389 474.803772,594.982971 
	C474.210754,601.813416 473.138489,608.652832 473.083405,615.500671 
	C472.949005,632.195984 475.900818,648.488098 480.500275,664.499939 
	C484.665558,679.000305 489.359741,693.377625 492.771362,708.053162 
	C494.404633,715.078979 496.710297,722.449951 494.149384,730.050354 
	C493.536682,731.868713 494.109558,734.321228 494.676788,736.581116 
	C495.118866,738.342468 495.829468,740.467468 495.305634,743.061707 
	C492.681183,756.058777 489.927399,768.977539 485.501709,781.500610 
	C484.401154,784.614746 485.346527,787.838623 485.089294,791.007263 
	C485.011932,791.960388 485.770294,793.612488 486.537445,793.900146 
	C491.359741,795.708618 495.679474,799.610962 501.512878,797.536194 
	C504.902069,796.330750 508.508942,797.348694 511.999725,796.997314 
	C513.501282,796.846313 515.000000,796.666687 516.500000,796.500061 
"/>
<path fill="none" opacity="1.000000" stroke="#000000" stroke-linecap="round" stroke-linejoin="round" stroke-width="3.000000"
	d="
M1236.000000,288.500000 
	C1240.080444,293.381927 1239.139282,299.443115 1239.367432,305.005432 
	C1239.915894,318.382538 1242.994751,331.188477 1246.439453,344.016266 
	C1250.999756,360.999359 1257.077759,377.607452 1259.874023,395.020233 
	C1260.902466,401.424896 1262.073486,408.256744 1257.106445,414.090637 
	C1256.547119,414.747650 1256.140625,416.220245 1255.887085,417.477234 
	C1254.348755,425.108185 1250.244263,431.306091 1244.515015,436.516449 
	C1241.750122,439.030853 1240.901978,442.311249 1240.974976,446.000488 
	C1241.298950,462.344940 1241.148438,478.697601 1239.913208,494.993408 
	C1239.026245,506.693909 1236.711548,518.305359 1236.185303,530.008362 
	C1235.715210,540.466248 1235.654663,550.937561 1236.621582,561.534546 
	C1238.018799,576.847473 1244.875244,590.351318 1248.154297,604.965393 
	C1250.093262,613.606750 1251.890381,622.197266 1253.193848,630.971191 
	C1254.402344,639.106262 1253.742554,647.022278 1252.931763,654.993042 
	C1252.266968,661.527161 1251.181641,668.034485 1249.956421,674.491699 
	C1248.226440,683.608337 1247.173706,692.812500 1245.809326,701.971619 
	C1244.394043,711.472961 1243.937012,720.979797 1243.570435,730.502686 
	C1243.038330,744.326538 1245.521484,757.783142 1249.476074,771.007141 
	C1252.016602,779.502197 1247.170288,786.065430 1238.500244,785.976379 
	C1232.989746,785.919800 1227.515625,785.879639 1221.977051,785.182068 
	C1214.452393,784.234253 1206.969360,786.418152 1199.503418,787.522705 
	C1191.345093,788.729614 1183.204102,790.278381 1175.009033,787.967896 
	C1173.191162,787.455383 1171.672363,787.761230 1169.980469,788.452087 
	C1167.431274,789.492920 1164.879517,789.617798 1163.000000,787.000000 
"/>
<path fill="none" opacity="1.000000" stroke="#000000" stroke-linecap="round" stroke-linejoin="round" stroke-width="3.000000"
	d="
M1027.000000,444.500000 
	C1026.927490,448.368622 1030.148315,451.871368 1028.041382,456.021027 
	C1026.288208,459.474365 1031.699951,463.730316 1026.928589,467.049683 
	C1022.937927,465.094055 1022.762878,460.884369 1022.143921,457.473877 
	C1020.464905,448.221802 1018.269531,439.110779 1016.216125,429.951538 
	C1015.260193,425.687500 1014.319397,421.086182 1014.989624,416.498474 
	C1016.422546,406.690308 1012.952271,397.739075 1009.395447,389.042786 
	C1002.247070,371.565613 994.108032,354.489288 987.128296,336.948944 
	C981.865540,323.723694 978.194641,309.956970 977.964600,295.500549 
	C977.865417,289.269958 975.582275,283.447113 974.014587,277.496155 
	C971.955139,269.678467 969.930298,261.849884 968.064331,253.984741 
	C967.728638,252.570023 967.185669,251.654007 965.615845,250.158157 
	C964.475037,255.409286 963.222046,259.915894 962.551575,264.507507 
	C960.780457,276.637299 957.147705,288.465088 957.843811,301.008667 
	C958.296143,309.157898 959.929565,316.763245 963.511475,323.994324 
	C971.780579,340.688232 977.232422,358.245178 981.157349,376.466095 
	C985.123474,394.878571 985.746399,413.426788 984.814026,431.990662 
	C983.973389,448.725739 980.610229,465.212006 976.521423,481.505371 
	C970.399902,505.898560 963.034424,530.015381 959.545532,555.006348 
	C958.135071,565.109802 956.049683,575.321960 957.197510,585.477661 
	C958.310181,595.321960 958.837036,605.119080 959.063477,614.998535 
	C959.504883,634.258118 955.249939,652.696594 949.995972,670.998840 
	C945.622192,686.235168 941.085388,701.441467 938.143127,717.027039 
	C937.487000,720.502625 937.486877,724.340759 938.451904,728.012634 
	C939.145874,730.652771 939.316711,733.242859 938.133545,736.056152 
	C937.053467,738.624451 936.699219,741.396729 937.871155,744.547913 
	C942.352478,756.597412 944.141113,769.536438 950.397034,781.055908 
	C953.402100,786.589539 952.132935,791.027710 947.431152,794.916809 
	C946.305847,795.847595 945.305664,796.789734 945.070679,798.013550 
	C944.488159,801.047791 942.743958,800.095032 941.000000,799.500000 
"/>
<path fill="none" opacity="1.000000" stroke="#000000" stroke-linecap="round" stroke-linejoin="round" stroke-width="3.000000"
	d="
M185.000015,428.500000 
	C188.166672,431.833313 191.620499,434.948639 194.383835,438.588196 
	C195.856140,440.527344 196.046951,443.360718 196.026260,446.000214 
	C195.957031,454.833008 196.015594,463.666687 195.996307,472.500000 
	C195.968094,485.414612 197.682632,498.186310 198.931107,511.006714 
	C200.370728,525.789734 201.910629,540.625488 200.917633,555.494507 
	C200.093063,567.841309 197.282776,579.864258 192.989868,591.496277 
	C189.025589,602.237854 185.996826,613.354431 184.333954,624.549622 
	C183.058945,633.133667 182.651520,642.007263 183.649490,651.038757 
	C185.020554,663.446533 187.761215,675.596252 189.172043,687.980408 
	C190.501129,699.647278 191.961502,711.299438 193.293350,722.966492 
	C195.217255,739.820190 191.590530,755.600098 187.469147,771.492004 
	C185.379059,779.551208 189.668274,785.766846 198.001022,785.954834 
	C203.342239,786.075256 208.643234,786.164490 214.030960,785.167236 
	C219.797806,784.099854 225.684723,785.684998 231.505997,786.454651 
	C240.136734,787.595947 248.683868,789.929871 257.495300,788.957520 
	C261.689209,788.494812 265.787140,787.254272 270.023560,788.940857 
	C271.638824,789.583984 273.207001,788.621033 274.500000,787.500000 
"/>
<path fill="none" opacity="1.000000" stroke="#000000" stroke-linecap="round" stroke-linejoin="round" stroke-width="3.000000"
	d="
M1170.500000,393.500000 
	C1166.215088,412.938141 1164.395020,432.598083 1164.975708,452.500702 
	C1165.325562,464.492737 1167.322388,476.261932 1169.533325,487.993713 
	C1173.425049,508.643158 1178.395386,529.026978 1184.919434,549.026306 
	C1185.836060,551.835999 1186.077393,555.020996 1185.925049,557.996155 
	C1185.418213,567.896729 1189.518555,576.488892 1193.636353,584.933533 
	C1196.167969,590.125488 1198.226318,595.154602 1198.566772,600.996094 
	C1199.160034,611.176758 1199.970459,621.354370 1201.058960,631.493652 
	C1202.012085,640.372009 1203.584595,649.196472 1204.745117,658.033447 
	C1205.857300,666.504150 1207.309692,674.952881 1208.154053,683.484741 
	C1209.077637,692.816589 1209.749146,702.158875 1210.566895,711.494141 
	C1211.438110,721.438293 1210.891846,731.224365 1209.036499,741.006897 
	C1207.982666,746.562927 1203.967773,749.029114 1199.535645,751.562317 
	C1189.612793,757.233643 1179.880371,763.175537 1169.052979,767.144470 
	C1166.054443,768.243652 1162.650635,767.951904 1160.000000,770.000000 
"/>
<path fill="none" opacity="1.000000" stroke="#000000" stroke-linecap="round" stroke-linejoin="round" stroke-width="3.000000"
	d="
M925.500000,401.500000 
	C920.114380,407.768707 915.449219,414.679901 908.952393,420.274933 
	C907.171143,431.623932 907.770691,443.350220 908.141296,454.995514 
	C908.581909,468.845001 909.991028,482.679413 910.783875,496.512390 
	C911.659912,511.797211 911.860107,527.129761 910.268494,542.527771 
	C908.967651,555.111755 908.791504,568.035217 912.520691,580.493774 
	C914.726013,587.861023 914.148560,595.161438 912.504822,602.501099 
	C908.997986,618.159607 907.402344,634.100464 909.194275,649.978088 
	C911.242371,668.125366 913.204346,686.205627 913.085083,704.500549 
	C913.032532,712.571777 909.969604,720.294373 909.928040,728.002319 
	C909.881042,736.696960 907.647278,745.295349 908.942383,754.008545 
	C909.130493,755.273682 909.665710,756.835999 910.134705,757.384949 
	C915.703979,763.903259 914.211731,771.704285 913.797852,778.988525 
	C913.454346,785.033447 913.749817,790.428955 918.570007,794.415344 
	C920.966858,796.397644 920.620239,799.376770 922.421570,801.564575 
	C927.236755,807.412476 930.045593,807.765076 935.500000,802.500000 
"/>
<path fill="none" opacity="1.000000" stroke="#000000" stroke-linecap="round" stroke-linejoin="round" stroke-width="3.000000"
	d="
M272.500000,251.000000 
	C275.720917,262.718353 275.036835,274.509186 274.262634,286.516937 
	C273.591400,296.927307 273.120544,307.503418 274.855652,318.023804 
	C275.725647,323.298645 276.213440,328.680359 276.985809,334.002075 
	C278.358459,343.460022 278.722290,353.063263 277.819336,362.482666 
	C276.486847,376.382507 275.530914,390.458618 269.589325,403.540558 
	C267.713531,407.670563 269.760895,412.260742 270.293182,416.462860 
	C270.818176,420.607452 271.752136,424.903198 271.830292,429.003235 
	C272.151947,445.883270 271.934937,462.686584 269.227478,479.536560 
	C265.488129,502.808289 258.968658,525.321838 252.803421,547.946411 
	C251.928452,551.157288 251.354965,554.644226 251.327942,557.503113 
	C251.217865,569.154968 246.412094,579.079956 241.370377,588.933655 
	C239.442947,592.700623 238.209396,596.619934 238.154541,600.502197 
	C237.974289,613.260254 236.184753,625.856873 234.886414,638.488342 
	C233.767120,649.377930 231.553192,660.150879 230.042770,671.005920 
	C229.142853,677.473511 229.006027,684.056946 227.926956,690.487732 
	C225.893173,702.608093 226.129028,714.797729 225.909546,726.998352 
	C225.832993,731.253479 226.784531,735.321655 227.096619,739.492798 
	C227.661163,747.037598 233.794510,749.931030 239.501648,752.996948 
	C246.661377,756.843140 253.693405,760.966675 261.048096,764.396851 
	C266.130859,766.767456 271.666656,768.166687 277.000000,770.000000 
"/>
<path fill="none" opacity="1.000000" stroke="#000000" stroke-linecap="round" stroke-linejoin="round" stroke-width="3.000000"
	d="
M885.500000,401.500000 
	C891.796448,407.087921 896.087097,414.451752 902.231689,420.282715 
	C904.408875,422.348785 903.852112,427.658936 903.936218,431.501404 
	C904.225342,444.704376 903.278748,457.843628 902.187317,471.015533 
	C901.169006,483.304596 900.464478,495.654053 899.826660,507.991028 
	C898.926819,525.396667 901.006836,542.659180 901.024841,560.000000 
	C901.032654,567.491089 900.046021,574.811523 897.995911,581.998840 
	C895.887695,589.389587 897.184937,596.694946 898.502930,603.999451 
	C901.220886,619.063782 903.241272,634.072510 901.193237,649.525635 
	C900.057251,658.096313 899.447632,666.819885 898.748474,675.479675 
	C898.047607,684.161133 897.724854,692.839783 897.637085,701.501404 
	C897.555481,709.549744 897.977905,717.677063 900.456055,725.513916 
	C901.159485,727.738464 901.957336,729.977722 901.055847,732.519836 
	C899.438965,737.079346 900.780518,741.769287 902.197693,745.932678 
	C903.887390,750.896362 902.529175,754.935425 899.879944,758.408447 
	C896.059448,763.416870 896.509460,769.048523 896.665894,774.495239 
	C896.800598,779.184875 898.041260,784.190430 896.286926,788.411438 
	C893.989441,793.939392 890.492920,799.075928 886.891174,803.919067 
	C884.264954,807.450439 880.788147,806.966248 877.000000,803.500000 
"/>
<path fill="none" opacity="1.000000" stroke="#000000" stroke-linecap="round" stroke-linejoin="round" stroke-width="3.000000"
	d="
M874.000000,95.500000 
	C876.860535,105.560936 876.515198,116.762962 884.408569,124.726700 
	C881.821899,129.257980 883.136292,133.995682 883.104675,138.500732 
	C883.077209,142.425354 881.895508,145.643036 878.950439,147.936356 
	C876.009644,150.226410 872.671387,152.007477 869.499146,153.998611 
	C860.940247,159.370789 851.707947,161.644363 841.515808,162.261353 
	C830.820312,162.908829 823.574036,170.070511 819.054077,179.525864 
	C813.864441,190.382233 812.607056,202.172287 812.084961,214.003754 
	C811.924377,217.641464 813.145996,221.256882 813.051331,225.001297 
	C812.722961,237.983749 810.078674,250.675613 808.523132,263.502808 
	C807.710876,270.201416 807.071533,276.889221 805.604614,283.523132 
	C803.707764,292.100739 798.781738,299.325439 795.846008,307.444305 
	C791.595642,319.198853 789.221191,331.333954 787.091553,343.516022 
	C784.091980,360.674683 780.460999,377.675629 775.888794,394.469727 
	C775.401733,396.258850 774.435669,398.387085 772.497253,399.495209 
	C766.307434,403.033813 761.975708,408.723511 757.209167,413.700317 
	C753.192993,417.893707 750.616516,423.659637 748.164246,429.074402 
	C746.965088,431.722260 745.299561,433.981964 743.961731,436.463104 
	C747.467529,439.845978 748.958923,439.831970 752.503845,436.504120 
	C755.716003,433.488800 756.959534,428.828583 760.984131,426.472870 
	C762.110474,425.813568 763.004517,424.732788 764.500000,425.000000 
"/>
<path fill="none" opacity="1.000000" stroke="#000000" stroke-linecap="round" stroke-linejoin="round" stroke-width="3.000000"
	d="
M551.500000,112.500000 
	C551.611938,122.000961 550.100098,131.474548 551.870056,141.024078 
	C552.866272,146.398544 556.956238,148.411133 560.556824,150.918381 
	C565.818848,154.582581 571.636963,157.366226 577.494568,160.011993 
	C581.011230,161.600418 584.886841,161.768982 588.503479,161.856079 
	C605.217346,162.258652 613.410828,170.940048 618.004944,184.498322 
	C621.412598,194.555328 623.500549,204.802216 623.017883,215.500809 
	C622.378296,229.678558 624.514587,243.583633 626.871643,257.521698 
	C628.359375,266.319244 628.966003,275.251556 630.898865,284.022278 
	C632.288208,290.326538 635.499939,295.745544 638.056763,301.474670 
	C642.857849,312.232330 645.639832,323.536743 648.014954,334.996887 
	C652.036133,354.399292 655.151794,374.005890 660.996155,393.001190 
	C661.964172,396.147461 663.362427,398.616913 666.422607,400.618317 
	C677.002930,407.538025 683.624939,417.870026 688.888794,429.052368 
	C690.114746,431.656769 692.280396,433.672699 693.161987,436.455994 
	C692.127747,438.463257 690.350098,439.490692 688.540527,438.879913 
	C686.690796,438.255554 684.407104,437.028351 683.646179,435.430420 
	C681.581726,431.094788 676.756897,428.589447 676.000000,423.500000 
"/>
<path fill="none" opacity="1.000000" stroke="#000000" stroke-linecap="round" stroke-linejoin="round" stroke-width="3.000000"
	d="
M504.500000,115.500000 
	C504.456818,124.002419 505.770325,132.450836 504.193329,141.035522 
	C503.316620,145.808258 500.222992,147.778122 496.975525,149.963638 
	C489.419617,155.048660 481.678314,159.691681 472.523346,161.611343 
	C468.649719,162.423599 464.847778,161.513138 460.978912,162.408966 
	C448.596924,165.275940 441.772308,173.576431 438.021973,185.007217 
	C433.805054,197.860214 432.134949,210.876404 433.743713,224.530197 
	C434.548065,231.356873 432.825043,238.519608 431.961365,245.495209 
	C430.782745,255.014374 429.195221,264.483276 428.042236,274.005127 
	C427.059570,282.120300 424.766632,289.710663 421.066101,297.033386 
	C414.939545,309.156860 411.523743,322.129639 408.833618,335.466431 
	C404.950226,354.718964 402.757355,374.367188 396.107361,393.038239 
	C394.999878,396.147552 393.846710,398.740936 391.008667,400.513885 
	C380.063568,407.351166 373.666992,417.883575 367.993256,428.996552 
	C366.705109,431.519623 365.331879,433.999237 363.924896,436.635468 
	C365.897552,439.883850 368.446381,439.264313 370.985382,437.479218 
	C375.376617,434.391876 376.821075,428.804230 380.957062,425.447083 
	C381.283264,425.182312 381.000000,424.166656 381.000000,423.500000 
"/>
<path fill="none" opacity="1.000000" stroke="#000000" stroke-linecap="round" stroke-linejoin="round" stroke-width="3.000000"
	d="
M928.500000,126.000000 
	C929.869019,130.743439 928.391357,135.699112 929.820068,140.552963 
	C930.545715,143.018188 931.016296,145.393692 933.023499,146.970062 
	C940.316223,152.697495 948.221436,157.470886 957.035034,160.394394 
	C960.487671,161.539627 964.321594,161.802658 968.002136,161.945297 
	C980.920959,162.445908 989.773865,169.727402 993.955688,180.517181 
	C998.304565,191.738174 1000.844910,203.318100 1000.032715,215.502182 
	C999.228638,227.565613 1000.443298,239.588654 1002.133545,251.481018 
	C1003.674988,262.326263 1004.398926,273.306824 1006.985535,284.003510 
	C1008.658936,290.924011 1012.374878,296.986053 1015.087097,303.463531 
	C1019.010010,312.832245 1020.890076,322.681091 1022.994568,332.501160 
	C1025.741211,345.317749 1027.679810,358.281433 1030.798218,371.049286 
	C1032.897827,379.645508 1034.539917,388.302368 1037.933960,396.527283 
	C1038.338867,397.508698 1038.171387,398.389160 1039.464355,399.067902 
	C1045.790161,402.388580 1050.289795,407.931793 1054.856934,413.125793 
	C1058.561890,417.339264 1061.384766,422.479645 1063.858032,427.568970 
	C1065.380737,430.702362 1067.532104,433.389557 1069.141724,436.236267 
	C1067.382080,440.338745 1064.064697,439.171539 1062.094116,437.858704 
	C1057.302612,434.666565 1055.252563,428.840118 1051.041504,424.955078 
	C1050.882324,424.808197 1051.333374,424.000000 1051.500000,423.500000 
"/>
<path fill="none" opacity="1.000000" stroke="#000000" stroke-linecap="round" stroke-linejoin="round" stroke-width="3.000000"
	d="
M1235.500000,104.000000 
	C1234.360352,104.355736 1232.777954,105.996979 1232.116699,104.450104 
	C1230.485352,100.633980 1226.283569,97.529297 1228.475586,92.489403 
	C1229.587036,89.933876 1229.074341,87.149857 1228.931152,84.503723 
	C1228.750366,81.164772 1226.282104,78.953781 1223.451782,78.175171 
	C1221.324097,77.589874 1218.707275,78.537048 1217.011597,80.509995 
	C1215.621338,82.127693 1214.046265,83.684242 1213.081177,85.542191 
	C1212.125854,87.381401 1210.208374,88.105713 1209.047729,87.811546 
	C1207.272461,87.361549 1205.580078,86.065720 1205.433716,83.503792 
	C1205.163086,78.770111 1202.353149,75.484436 1198.499268,73.001106 
	C1194.224976,70.246925 1179.501587,56.748886 1177.533203,53.480000 
	C1175.841553,50.670559 1177.537964,47.960663 1179.094116,46.077789 
	C1186.556641,37.048374 1196.412354,32.411705 1207.993530,30.948961 
	C1217.760376,29.715372 1227.102051,31.180569 1235.973755,35.060123 
	C1251.570190,41.880424 1260.599121,57.173847 1260.658081,72.501312 
	C1260.710083,86.038818 1256.195190,98.958832 1245.441162,108.433243 
	C1241.539673,111.870514 1241.546631,116.157097 1241.550903,120.499947 
	C1241.561401,131.101776 1244.936890,140.899261 1250.077393,149.956070 
	C1257.349121,162.767532 1261.233521,176.457504 1263.134399,190.982422 
	C1264.150635,198.748138 1265.153198,206.603607 1262.807251,213.938354 
	C1259.035034,225.732056 1264.339722,236.353989 1265.452148,247.504776 
	C1266.316406,256.167603 1267.541748,264.781464 1268.184326,273.486389 
	C1268.940552,283.731445 1270.255981,294.020416 1273.025635,303.992889 
	C1275.892578,314.315979 1276.843140,324.924622 1277.970337,335.503174 
	C1279.105347,346.155426 1280.142212,356.822723 1280.939941,367.504486 
	C1281.337524,372.829590 1281.038574,378.169220 1281.919922,383.513214 
	C1283.417847,392.596069 1284.086914,401.710327 1288.886719,410.065125 
	C1294.772705,420.311035 1297.964478,431.454681 1298.156738,443.497498 
	C1298.236084,448.466492 1299.526123,453.525726 1298.823608,458.474945 
	C1298.497559,460.772095 1300.240845,465.237976 1295.000000,465.000000 
"/>
<path fill="none" opacity="1.000000" stroke="#000000" stroke-linecap="round" stroke-linejoin="round" stroke-width="3.000000"
	d="
M181.500000,94.500000 
	C183.719772,100.260391 188.291946,104.398506 192.162949,108.858574 
	C195.841202,113.096581 196.439728,117.665680 195.895660,122.488228 
	C194.972427,130.671371 193.340530,138.824829 188.961227,145.976257 
	C178.978836,162.277573 174.357971,180.252213 173.252029,199.014862 
	C172.836151,206.070557 172.727570,213.583054 175.912262,220.540161 
	C177.546997,224.111343 175.547974,227.916046 174.879272,231.477325 
	C172.761124,242.757568 170.940552,254.023483 169.817581,265.482117 
	C168.316742,280.796356 166.785950,296.124695 162.256653,311.077728 
	C159.814331,319.140839 159.991074,327.998962 159.001968,336.500214 
	C157.260971,351.463806 156.820312,366.534393 155.237671,381.525085 
	C154.506104,388.454529 152.558395,395.094788 151.900070,401.990448 
	C151.734863,403.720917 150.374847,405.355652 149.493286,406.996399 
	C143.607559,417.950409 139.555817,429.301025 138.742493,441.983490 
	C138.313950,448.665985 138.431732,455.338623 137.989151,461.999268 
	C137.813217,464.647003 139.283951,465.224274 141.500000,465.000000 
"/>
<path fill="none" opacity="1.000000" stroke="#000000" stroke-linecap="round" stroke-linejoin="round" stroke-width="3.000000"
	d="
M527.000000,418.500000 
	C524.815674,420.787231 521.725891,422.839783 524.978760,426.518799 
	C525.144165,426.705902 524.995483,427.166718 525.000671,427.500000 
	C525.229004,442.191528 525.145325,456.888031 523.403625,471.488495 
	C522.767029,476.824341 522.717285,482.187988 522.221619,487.520599 
	C520.663086,504.285645 520.505493,521.159302 521.118530,537.995667 
	C521.263367,541.973877 521.683838,546.009949 522.102234,549.989258 
	C523.154175,559.992615 522.504272,569.960754 519.783142,579.437744 
	C517.049622,588.958191 518.661743,597.856934 520.491333,607.001709 
	C523.268127,620.881348 524.868103,635.020386 522.789429,648.968628 
	C519.914246,668.262756 518.946472,687.566223 518.960938,707.000000 
	C518.965698,713.368164 520.240845,719.487488 522.085327,725.473694 
	C523.083313,728.712585 524.057068,731.632812 521.500000,734.500000 
"/>
<path fill="none" opacity="1.000000" stroke="#000000" stroke-linecap="round" stroke-linejoin="round" stroke-width="3.000000"
	d="
M522.500000,368.500000 
	C527.294983,373.402527 527.867737,379.684937 527.958496,386.000610 
	C528.092712,395.342590 528.166687,404.690155 527.073853,414.008667 
	C526.885559,415.614136 527.103210,417.904053 528.105286,418.893402 
	C531.156372,421.905487 529.937683,425.067139 529.581909,428.508453 
	C528.343506,440.486572 528.845337,452.507629 529.538269,464.497803 
	C530.193787,475.841400 531.422974,487.155609 531.911804,498.503815 
	C532.249207,506.336731 533.549255,514.116577 533.027222,522.001831 
	C532.255249,533.661499 531.736572,545.337830 530.977966,556.998535 
	C530.368958,566.359741 532.139465,575.515198 534.234924,584.444885 
	C535.748413,590.894287 534.964294,597.050781 533.787781,602.957703 
	C530.710327,618.408508 529.035034,633.720825 530.857727,649.516418 
	C532.560303,664.270447 534.231323,679.055847 534.118713,694.000916 
	C534.030518,705.709473 534.981201,717.384155 530.133545,728.557922 
	C529.419373,730.204163 529.151184,732.962219 531.500000,734.500000 
"/>
<path fill="none" opacity="1.000000" stroke="#000000" stroke-linecap="round" stroke-linejoin="round" stroke-width="3.000000"
	d="
M597.000000,210.500000 
	C594.982422,221.986053 592.913757,233.444138 589.126709,244.543228 
	C588.365906,246.772995 589.159668,249.451691 589.864075,252.037033 
	C594.264099,268.184631 601.061951,283.858307 602.741638,300.526031 
	C604.741821,320.374542 612.344788,338.166962 620.128845,355.943573 
	C627.299194,372.318390 634.928284,388.483978 640.426453,405.523743 
	C641.285889,408.187317 641.864136,411.294464 641.372681,413.976685 
	C639.723633,422.975677 642.740051,431.424042 644.214355,439.962982 
	C645.309448,446.305237 646.296387,452.758881 648.084473,458.975708 
	C648.880127,461.742157 648.940063,465.235992 652.731995,466.551025 
	C656.605103,458.905060 652.277771,451.497528 652.000000,444.000000 
"/>
<path fill="none" opacity="1.000000" stroke="#000000" stroke-linecap="round" stroke-linejoin="round" stroke-width="3.000000"
	d="
M899.500000,239.500000 
	C894.963379,247.521133 889.244141,254.093979 880.017395,257.054138 
	C869.706543,260.362091 860.000549,260.262115 850.994568,253.507233 
	C847.442932,250.843307 844.739441,251.542892 844.111206,256.015625 
	C842.288818,268.991486 836.725220,280.992950 834.770325,293.965393 
	C834.035461,298.841370 834.539246,303.692657 833.559998,308.512177 
	C831.274597,319.760498 827.421204,330.424927 823.105042,341.042694 
	C815.702759,359.252106 806.911987,376.883057 800.491577,395.497101 
	C798.085938,402.471466 796.505798,409.490723 796.915283,417.004608 
	C797.419678,426.260254 794.543091,435.089722 792.504456,444.001038 
	C791.177490,449.801605 790.769165,455.771027 789.085266,461.524963 
	C788.405945,463.846222 787.567566,465.739990 785.886658,467.008209 
	C784.143738,467.022949 783.612122,465.621399 783.595032,464.997406 
	C783.416992,458.483307 783.687073,451.972443 784.579346,445.510956 
	C784.636963,445.093536 785.833374,444.833344 786.500000,444.500031 
"/>
<path fill="none" opacity="1.000000" stroke="#000000" stroke-linecap="round" stroke-linejoin="round" stroke-width="3.000000"
	d="
M467.500000,251.500000 
	C464.799133,255.599716 464.196472,260.468353 463.143188,265.033051 
	C461.049072,274.108856 457.764618,282.822113 455.749207,291.944580 
	C454.129852,299.274384 453.807556,306.717224 452.218353,314.047333 
	C449.182220,328.051514 443.596161,341.070862 437.806824,353.912903 
	C430.148621,370.900543 422.889984,388.011108 416.564728,405.523376 
	C416.026520,407.013458 416.093781,408.709686 416.347565,410.521362 
	C417.461823,418.474762 416.109863,426.250427 414.094086,434.024384 
	C412.004913,442.081512 410.391113,450.291382 409.138214,458.521057 
	C408.650299,461.725922 406.659088,463.830017 406.100983,466.974304 
	C401.459381,463.311157 401.659729,453.894562 406.000000,443.000000 
"/>
<path fill="none" opacity="1.000000" stroke="#000000" stroke-linecap="round" stroke-linejoin="round" stroke-width="3.000000"
	d="
M940.500000,99.000000 
	C944.059204,98.851448 944.372498,96.038300 944.996338,93.499100 
	C945.949036,89.621101 948.103699,85.745842 944.536499,81.965546 
	C943.250366,80.602676 943.680542,78.492004 944.089355,77.024895 
	C949.346375,58.160709 936.833130,36.457817 918.481934,31.567905 
	C905.998962,28.241676 893.613342,29.198914 883.099426,37.131763 
	C871.432800,45.934288 866.173950,58.289856 867.058044,72.996513 
	C867.191833,75.222229 868.100342,77.401375 868.774414,80.097565 
	C863.180542,83.236626 866.578064,88.527939 867.200195,92.971970 
	C867.732605,96.774101 869.981934,100.340874 871.507324,103.996933 
	C872.335876,105.982643 873.882080,106.778870 876.000000,106.500000 
"/>
<path fill="none" opacity="1.000000" stroke="#000000" stroke-linecap="round" stroke-linejoin="round" stroke-width="3.000000"
	d="
M260.000000,54.000000 
	C263.727020,61.218761 265.662262,68.820839 265.009186,77.000732 
	C264.701477,80.854813 265.048096,84.488503 267.960815,87.537445 
	C269.675507,89.332329 271.016571,91.487823 272.496338,93.502686 
	C275.077759,97.017570 274.822968,98.567368 270.455719,99.849083 
	C268.046570,100.556137 267.329498,102.184395 268.129791,103.415634 
	C270.346466,106.825821 265.757812,109.806351 267.914307,113.056854 
	C268.068604,113.289444 267.138702,114.586746 266.473175,114.951004 
	C264.700104,115.921471 264.868164,117.513916 265.028748,118.996887 
	C265.958252,127.581291 261.768036,131.608719 253.026291,129.867996 
	C250.685867,129.401947 248.691833,129.752838 246.493790,129.836304 
	C243.590118,129.946548 242.006485,131.329849 241.049957,133.521805 
	C238.408966,139.573730 236.117844,145.761795 236.004807,152.500076 
	C235.951202,155.694901 236.896179,158.776138 239.058563,160.941528 
	C248.756744,170.653244 255.569244,182.543091 263.251190,193.671738 
	C270.416260,204.051590 279.174042,212.775497 287.534851,221.968323 
	C288.079987,222.567688 289.125305,222.712158 289.715820,222.970886 
	C287.537872,227.522034 287.858734,231.355515 287.075348,235.016129 
	C284.857513,245.379684 273.990509,253.096954 262.915375,250.339951 
	C253.729370,248.053207 247.667618,242.591080 241.500000,236.500000 
"/>
<path fill="none" opacity="1.000000" stroke="#000000" stroke-linecap="round" stroke-linejoin="round" stroke-width="3.000000"
	d="
M1164.500000,251.000000 
	C1160.611572,265.047089 1161.940063,279.304352 1163.075317,293.493988 
	C1163.911011,303.941101 1163.191650,314.183502 1161.600464,324.515472 
	C1159.717529,336.740967 1157.881226,349.116211 1159.128174,361.487091 
	C1160.541748,375.510925 1161.418701,389.728516 1167.000000,403.000000 
"/>
<path fill="none" opacity="1.000000" stroke="#000000" stroke-linecap="round" stroke-linejoin="round" stroke-width="3.000000"
	d="
M553.000000,120.500000 
	C556.015259,116.320374 556.256775,111.249207 557.571838,106.033073 
	C561.915161,107.316246 563.436218,104.473000 564.506470,101.001991 
	C565.781982,96.865028 567.258911,92.819061 568.161316,88.533974 
	C568.807800,85.464058 569.523804,83.089630 566.537231,80.948112 
	C565.264832,80.035728 565.800476,78.217323 566.069214,77.015465 
	C570.586548,56.808372 558.699036,38.005474 541.912415,32.255737 
	C515.725281,23.286163 489.079865,39.644386 488.924683,68.999603 
	C488.891998,75.179100 489.765961,80.980141 492.500000,86.500000 
"/>
<path fill="none" opacity="1.000000" stroke="#000000" stroke-linecap="round" stroke-linejoin="round" stroke-width="3.000000"
	d="
M1168.000000,101.000000 
	C1167.912842,102.001518 1169.265015,102.306435 1169.036377,103.506927 
	C1168.165039,108.083954 1169.687012,112.111549 1171.900146,116.056015 
	C1172.328247,116.818939 1171.983765,118.281509 1171.599854,119.530678 
	C1169.688965,125.747520 1172.291504,129.199997 1179.001465,129.461807 
	C1182.836548,129.611435 1186.597412,128.915268 1190.549683,129.770187 
	C1193.040283,130.308914 1195.260864,131.253464 1195.854126,133.048218 
	C1198.359253,140.626892 1202.175171,148.027481 1200.096313,156.523575 
	C1199.735718,157.997803 1199.336426,159.503143 1198.443726,160.446823 
	C1187.856201,171.640549 1180.145630,184.898834 1171.409424,197.436859 
	C1164.650635,207.136841 1156.038696,215.348831 1148.068604,224.199219 
	C1148.635254,225.844772 1150.149048,227.312973 1150.021973,229.501282 
	C1149.159058,244.353790 1163.449951,256.783356 1181.523315,248.048355 
	C1187.192993,245.308212 1191.144897,240.712692 1195.500000,236.500000 
"/>
<path fill="none" opacity="1.000000" stroke="#000000" stroke-linecap="round" stroke-linejoin="round" stroke-width="3.000000"
	d="
M230.500000,77.500000 
	C240.398102,73.956139 246.791763,65.958153 253.986816,58.986389 
	C254.916351,58.085690 255.643463,56.979549 256.503906,56.003441 
	C261.003998,50.898296 261.360931,49.253914 256.935394,44.560913 
	C249.147858,36.302689 239.545654,31.640154 228.003387,30.943811 
	C216.106354,30.226070 204.995483,31.707035 194.954590,38.936935 
	C182.868179,47.639713 176.430466,59.355347 176.780136,73.993309 
	C176.922394,79.949226 177.186523,86.578369 181.000000,92.000000 
"/>
<path fill="none" opacity="1.000000" stroke="#000000" stroke-linecap="round" stroke-linejoin="round" stroke-width="3.000000"
	d="
M229.500000,204.500000 
	C217.083023,231.550491 211.434464,260.937683 200.500000,288.500000 
"/>
<path fill="none" opacity="1.000000" stroke="#000000" stroke-linecap="round" stroke-linejoin="round" stroke-width="3.000000"
	d="
M1207.500000,209.500000 
	C1213.448364,213.817017 1214.631958,220.607788 1216.480347,227.005676 
	C1221.735229,245.195099 1227.059937,263.370789 1234.101074,280.959564 
	C1236.097046,285.945496 1234.309814,289.975098 1233.088623,294.523804 
	C1228.407227,311.962189 1231.579224,328.296082 1241.054199,343.466156 
	C1242.734009,346.155518 1244.410889,348.971283 1247.000000,351.000000 
"/>
<path fill="none" opacity="1.000000" stroke="#000000" stroke-linecap="round" stroke-linejoin="round" stroke-width="3.000000"
	d="
M1261.500000,435.500000 
	C1261.399536,438.311249 1262.907837,440.600311 1264.018921,442.991211 
	C1268.307007,452.219360 1268.623047,462.528748 1271.979858,472.007111 
	C1272.137207,472.451385 1271.785278,473.210632 1272.035278,473.465424 
	C1273.520264,474.979004 1273.150269,478.661346 1276.482544,477.921356 
	C1279.278564,477.300446 1277.530273,474.674591 1277.991943,472.997803 
	C1280.260010,464.759491 1276.444580,457.020203 1275.899780,449.006805 
	C1275.799438,447.529724 1275.406738,446.028870 1275.500000,444.500000 
"/>
<path fill="none" opacity="1.000000" stroke="#000000" stroke-linecap="round" stroke-linejoin="round" stroke-width="3.000000"
	d="
M202.000000,289.000000 
	C208.490280,307.530426 206.937775,325.255798 196.453476,341.970825 
	C194.298859,345.405884 193.270584,349.672729 189.500000,352.000000 
"/>
<path fill="none" opacity="1.000000" stroke="#000000" stroke-linecap="round" stroke-linejoin="round" stroke-width="3.000000"
	d="
M676.500000,427.500000 
	C675.649719,433.506683 677.470093,439.225250 678.560303,444.988586 
	C679.799194,451.537964 681.667664,457.968170 682.910278,464.517029 
	C683.353516,466.853058 683.868164,469.808258 680.349365,471.051514 
	C677.566284,469.360229 676.861450,466.453766 675.922058,463.524994 
	C675.134705,461.070068 675.749512,457.791901 672.500000,456.500000 
"/>
<path fill="none" opacity="1.000000" stroke="#000000" stroke-linecap="round" stroke-linejoin="round" stroke-width="3.000000"
	d="
M659.500000,443.500000 
	C662.282776,449.014435 662.336609,455.278290 664.327026,461.059540 
	C665.773010,465.259583 666.732788,469.548248 668.827087,473.589600 
	C669.790466,475.448517 670.348267,477.649597 672.435913,476.835693 
	C674.624939,475.982330 675.236145,473.817719 674.615234,470.974823 
	C672.481995,461.207031 670.833313,451.333344 668.999939,441.500000 
"/>
<path fill="none" opacity="1.000000" stroke="#000000" stroke-linecap="round" stroke-linejoin="round" stroke-width="3.000000"
	d="
M541.500000,707.500000 
	C541.538879,714.055420 540.829163,720.409180 538.200378,726.585266 
	C537.602539,727.989746 536.897888,729.081482 535.962769,729.960449 
	C528.310120,737.153503 528.299683,746.339844 531.291260,754.898193 
	C534.055420,762.806091 533.826660,770.237427 532.467163,777.994263 
	C531.511292,783.448547 530.608398,788.865479 533.559998,793.965271 
	C534.192078,795.057373 534.034119,796.037537 533.950134,796.995605 
	C533.637573,800.558655 534.731628,803.753540 538.053833,804.834656 
	C540.879272,805.754150 544.244934,805.430908 546.000000,802.000000 
"/>
<path fill="none" opacity="1.000000" stroke="#000000" stroke-linecap="round" stroke-linejoin="round" stroke-width="3.000000"
	d="
M913.500000,239.500000 
	C917.094971,249.817581 925.115601,255.080353 935.010498,257.963867 
	C945.812256,261.111633 955.523987,258.215210 964.500000,252.000000 
"/>
<path fill="none" opacity="1.000000" stroke="#000000" stroke-linecap="round" stroke-linejoin="round" stroke-width="3.000000"
	d="
M760.500000,428.000000 
	C762.139099,433.779480 759.454346,439.041840 758.470032,444.494598 
	C757.262451,451.183960 755.712769,457.812744 754.568787,464.511749 
	C754.194336,466.704620 754.053223,469.167206 756.082642,471.118805 
	C761.480225,470.031403 760.035461,464.689056 762.000000,461.500000 
"/>
<path fill="none" opacity="1.000000" stroke="#000000" stroke-linecap="round" stroke-linejoin="round" stroke-width="3.000000"
	d="
M541.500000,89.500000 
	C536.886169,82.823967 529.796204,80.025284 522.500000,81.999992 
	C516.969177,83.496910 511.298035,90.324669 511.127136,97.003250 
	C510.973602,103.005020 512.685669,108.679581 518.000000,112.500000 
"/>
<path fill="none" opacity="1.000000" stroke="#000000" stroke-linecap="round" stroke-linejoin="round" stroke-width="3.000000"
	d="
M200.000000,289.500000 
	C198.184814,292.943512 197.418121,296.884216 197.664307,300.488770 
	C198.401489,311.282288 196.287781,321.739288 193.812088,331.954468 
	C189.128769,351.278656 182.781235,370.204651 178.268906,389.562683 
	C176.437225,397.420624 175.124023,405.900269 179.821564,414.102203 
	C183.571976,420.650452 184.849579,428.167511 184.113632,436.010651 
	C183.488892,442.668701 185.490753,449.296539 184.917084,456.190826 
	C181.114532,457.435638 177.878998,455.413544 177.108353,449.984619 
	C176.593018,446.354095 176.183167,442.880829 174.713562,439.409576 
	C174.096863,437.952911 175.833344,435.500000 176.500015,433.500000 
"/>
<path fill="none" opacity="1.000000" stroke="#000000" stroke-linecap="round" stroke-linejoin="round" stroke-width="3.000000"
	d="
M777.500000,445.500000 
	C776.709045,445.709045 776.168213,445.870758 775.938599,446.987366 
	C774.562439,453.679504 772.892151,460.311707 771.549438,467.009918 
	C770.955627,469.972076 771.521851,472.847351 774.136780,475.696350 
	C780.289062,470.399780 778.997803,462.521576 782.000000,456.500000 
"/>
<path fill="none" opacity="1.000000" stroke="#000000" stroke-linecap="round" stroke-linejoin="round" stroke-width="3.000000"
	d="
M1177.000000,54.000000 
	C1173.036865,61.167439 1171.488647,68.893311 1172.045044,76.996902 
	C1172.364380,81.647766 1171.181274,85.578773 1168.032715,89.029839 
	C1166.831665,90.346367 1166.085571,92.067245 1164.975464,93.480682 
	C1163.906982,94.840843 1162.330688,96.166939 1163.076782,97.968185 
	C1164.007690,100.215218 1166.707642,100.831055 1168.435913,100.293938 
	C1170.223877,99.738312 1171.500000,101.231651 1173.205933,100.347702 
	C1174.014282,99.641281 1173.268311,98.489174 1173.500000,97.500000 
"/>
<path fill="none" opacity="1.000000" stroke="#000000" stroke-linecap="round" stroke-linejoin="round" stroke-width="3.000000"
	d="
M176.000000,68.500000 
	C170.487656,67.641617 167.125824,70.086601 165.000015,76.500008 
	C162.264648,84.752419 165.504807,94.714806 171.964996,99.052132 
	C176.034180,101.784142 179.901688,101.692719 184.000000,99.500000 
"/>
<path fill="none" opacity="1.000000" stroke="#000000" stroke-linecap="round" stroke-linejoin="round" stroke-width="2.000000"
	d="
M551.500000,190.500000 
	C552.118530,203.469452 554.196411,216.244370 556.427612,229.012650 
	C557.045532,232.548782 558.617249,235.093369 561.500000,237.000000 
"/>
<path fill="none" opacity="1.000000" stroke="#000000" stroke-linecap="round" stroke-linejoin="round" stroke-width="3.000000"
	d="
M971.500000,205.500000 
	C966.562378,212.366943 967.572388,220.135223 969.198975,227.455780 
	C970.668152,234.067917 969.614014,239.962967 967.503296,246.001144 
	C966.981567,247.493546 966.500061,249.000015 966.000061,250.500015 
"/>
<path fill="none" opacity="1.000000" stroke="#000000" stroke-linecap="round" stroke-linejoin="round" stroke-width="3.000000"
	d="
M388.000000,441.500000 
	C388.024780,443.787781 387.337036,445.851227 386.601898,448.034302 
	C383.995483,455.774475 384.691498,464.070404 383.086578,472.017487 
	C382.740143,473.732697 382.025055,476.538391 385.011414,476.907867 
	C387.475800,477.212769 388.586731,475.144104 388.937134,472.989777 
	C389.081696,472.100800 389.399841,471.533264 390.000000,471.000000 
"/>
<path fill="none" opacity="1.000000" stroke="#000000" stroke-linecap="round" stroke-linejoin="round" stroke-width="3.000000"
	d="
M233.000000,77.000000 
	C232.908493,81.537582 232.018021,85.675674 227.474182,88.224030 
	C224.582138,86.917854 223.155136,84.359047 221.486801,82.009377 
	C219.673721,79.455811 217.219452,77.639824 214.010910,78.079628 
	C211.000076,78.492340 208.118423,82.923492 208.000000,86.500000 
	C207.790085,92.838684 214.486191,103.966789 220.031845,105.909088 
	C221.816833,106.534248 224.112885,106.336525 224.500000,103.500000 
"/>
<path fill="none" opacity="1.000000" stroke="#000000" stroke-linecap="round" stroke-linejoin="round" stroke-width="3.000000"
	d="
M380.500000,427.500000 
	C382.118744,433.435547 379.387543,438.874298 378.428741,444.487823 
	C377.224487,451.538330 375.477814,458.495361 374.011749,465.502472 
	C373.483643,468.026642 374.944611,469.466553 377.014038,470.618805 
	C381.718933,468.085236 380.422882,462.532227 383.000000,459.000000 
"/>
<path fill="none" opacity="1.000000" stroke="#000000" stroke-linecap="round" stroke-linejoin="round" stroke-width="3.000000"
	d="
M1052.500000,428.000000 
	C1050.770874,434.585541 1053.325195,440.728241 1054.526489,446.994904 
	C1055.708130,453.159058 1057.489136,459.211060 1057.990845,465.500732 
	C1058.159180,467.612122 1058.302002,469.761322 1055.799072,470.997772 
	C1051.603882,468.869202 1052.329956,463.811462 1050.000000,460.500000 
"/>
<path fill="none" opacity="1.000000" stroke="#000000" stroke-linecap="round" stroke-linejoin="round" stroke-width="3.000000"
	d="
M940.000000,92.000000 
	C938.998169,93.930405 939.190979,96.076401 939.642456,97.965965 
	C939.891846,99.009598 940.302979,100.451927 939.917175,100.933670 
	C934.806580,107.315399 935.148560,116.093651 930.078247,122.561325 
	C925.520325,128.375443 919.862122,132.822418 913.423035,135.835480 
	C905.970215,139.322845 898.884705,136.332352 892.530151,131.956253 
	C890.013123,130.222931 887.833374,127.999977 885.500000,125.999977 
"/>
<path fill="none" opacity="1.000000" stroke="#000000" stroke-linecap="round" stroke-linejoin="round" stroke-width="3.000000"
	d="
M174.000000,440.500000 
	C170.521515,446.545074 169.620575,453.387756 168.023087,460.005585 
	C166.903564,464.643372 166.267639,469.415558 164.871628,473.960571 
	C164.292648,475.845551 163.154678,478.154694 159.766907,478.391968 
	C157.197296,467.327148 159.570709,456.412292 162.000000,445.500000 
"/>
<path fill="none" opacity="1.000000" stroke="#000000" stroke-linecap="round" stroke-linejoin="round" stroke-width="3.000000"
	d="
M520.500000,758.500000 
	C520.333374,762.500000 519.832520,766.521179 520.084229,770.494690 
	C520.402283,775.516724 521.545532,780.483215 521.942261,785.504578 
	C522.366760,790.877136 520.111389,795.888062 518.837769,800.959229 
	C517.570068,806.006653 512.955322,806.595276 508.000000,803.000000 
"/>
<path fill="none" opacity="1.000000" stroke="#000000" stroke-linecap="round" stroke-linejoin="round" stroke-width="3.000000"
	d="
M543.000000,91.500000 
	C544.199829,96.380455 544.495239,101.312813 542.453979,105.979866 
	C538.985474,113.909996 532.882202,116.595200 523.998901,114.504723 
	C519.476562,113.440498 515.399963,113.683311 513.000000,118.500000 
"/>
<path fill="none" opacity="1.000000" stroke="#000000" stroke-linecap="round" stroke-linejoin="round" stroke-width="3.000000"
	d="
M152.500000,442.500000 
	C151.133850,453.379578 150.028748,464.299286 147.500000,475.000000 
"/>
<path fill="none" opacity="1.000000" stroke="#000000" stroke-linecap="round" stroke-linejoin="round" stroke-width="3.000000"
	d="
M1284.500000,442.500000 
	C1284.212280,447.789825 1286.049683,452.815430 1286.451904,458.003723 
	C1286.981323,464.834045 1289.364868,471.503387 1288.073486,478.513550 
	C1287.751831,480.259674 1287.142090,480.975464 1285.485596,481.026947 
	C1280.557983,478.887695 1282.626099,473.270294 1280.000000,470.000000 
"/>
<path fill="none" opacity="1.000000" stroke="#000000" stroke-linecap="round" stroke-linejoin="round" stroke-width="2.000000"
	d="
M242.500000,351.500000 
	C253.771423,358.073578 261.408447,367.278931 263.500000,380.500000 
"/>
<path fill="none" opacity="1.000000" stroke="#000000" stroke-linecap="round" stroke-linejoin="round" stroke-width="2.000000"
	d="
M1194.500000,351.500000 
	C1183.213867,358.062927 1175.704224,367.360504 1173.500000,380.500000 
"/>
<path fill="none" opacity="1.000000" stroke="#000000" stroke-linecap="round" stroke-linejoin="round" stroke-width="3.000000"
	d="
M397.000000,443.500000 
	C394.730927,451.768768 393.702087,460.324280 391.093658,468.529785 
	C390.400452,470.710510 391.876831,472.829102 393.738098,474.817322 
	C400.158081,472.310059 397.999115,465.221741 401.000000,461.000000 
"/>
<path fill="none" opacity="1.000000" stroke="#000000" stroke-linecap="round" stroke-linejoin="round" stroke-width="2.000000"
	d="
M502.500000,206.500000 
	C502.051697,214.604767 500.553040,222.552170 499.047668,230.509018 
	C498.450256,233.666763 496.479797,235.458817 494.000000,237.000000 
"/>
<path fill="none" opacity="1.000000" stroke="#000000" stroke-linecap="round" stroke-linejoin="round" stroke-width="3.000000"
	d="
M267.500000,776.500000 
	C272.987701,777.764648 278.475250,778.900391 281.075378,784.967712 
	C281.757629,786.559753 283.478424,786.309021 285.009399,785.518250 
	C290.989258,782.429810 292.271545,780.172791 290.000000,776.500000 
	C288.357941,773.845093 279.529724,770.477783 276.530579,771.583008 
	C275.821167,771.844360 275.183167,771.899292 274.500000,772.000000 
"/>
<path fill="none" opacity="1.000000" stroke="#000000" stroke-linecap="round" stroke-linejoin="round" stroke-width="3.000000"
	d="
M884.000000,56.000000 
	C879.474060,59.570370 877.927917,64.284767 876.619812,69.911606 
	C875.421143,75.067215 874.559692,80.391747 873.000000,85.500000 
"/>
<path fill="none" opacity="1.000000" stroke="#000000" stroke-linecap="round" stroke-linejoin="round" stroke-width="2.000000"
	d="
M928.500000,55.500000 
	C936.005554,63.137283 936.912292,73.292366 939.027710,82.993965 
	C939.146912,83.540649 939.666687,84.000008 940.000000,84.500008 
"/>
<path fill="none" opacity="1.000000" stroke="#000000" stroke-linecap="round" stroke-linejoin="round" stroke-width="3.000000"
	d="
M223.500000,162.500000 
	C215.924210,153.894348 206.918808,151.209808 195.500000,156.500000 
"/>
<path fill="none" opacity="1.000000" stroke="#000000" stroke-linecap="round" stroke-linejoin="round" stroke-width="3.000000"
	d="
M1261.000000,68.500000 
	C1267.017090,67.945717 1272.046387,71.411812 1272.912964,77.512360 
	C1273.989380,85.088295 1272.463867,92.247047 1266.964111,97.965477 
	C1263.455322,101.613716 1258.463623,102.021736 1254.000000,99.500000 
"/>
<path fill="none" opacity="1.000000" stroke="#000000" stroke-linecap="round" stroke-linejoin="round" stroke-width="3.000000"
	d="
M203.000000,740.500000 
	C202.677368,744.667542 203.146255,748.791321 202.158997,753.036987 
	C200.544220,759.981262 205.147125,764.694336 211.500000,763.500000 
"/>
<path fill="none" opacity="1.000000" stroke="#000000" stroke-linecap="round" stroke-linejoin="round" stroke-width="3.000000"
	d="
M1234.000000,740.500000 
	C1234.456909,744.823853 1233.632324,749.114990 1234.833862,753.545044 
	C1236.442627,759.475647 1231.223022,764.575928 1225.500000,763.500000 
"/>
<path fill="none" opacity="1.000000" stroke="#000000" stroke-linecap="round" stroke-linejoin="round" stroke-width="3.000000"
	d="
M762.500000,460.500000 
	C764.331909,462.708893 764.440125,463.112854 763.485046,466.996338 
	C762.701843,470.181030 763.129761,473.333344 762.960693,476.805695 
	C765.493103,476.942780 767.184143,477.793518 768.260681,474.587555 
	C768.736450,473.170685 767.978027,470.897644 770.000000,470.000000 
"/>
<path fill="none" opacity="1.000000" stroke="#000000" stroke-linecap="round" stroke-linejoin="round" stroke-width="3.000000"
	d="
M907.000000,38.500000 
	C907.000000,41.666668 905.865662,45.554893 907.299744,47.809341 
	C908.930969,50.373882 913.394165,49.383659 916.519348,50.442867 
	C919.013733,51.288254 921.786743,51.306507 924.000000,53.000000 
"/>
<path fill="none" opacity="1.000000" stroke="#000000" stroke-linecap="round" stroke-linejoin="round" stroke-width="3.000000"
	d="
M1240.000000,156.000000 
	C1230.484131,151.315903 1218.431885,154.617599 1214.500000,162.500000 
"/>
<path fill="none" opacity="1.000000" stroke="#000000" stroke-linecap="round" stroke-linejoin="round" stroke-width="3.000000"
	d="
M489.500000,81.000000 
	C486.322083,82.718475 486.589172,85.831169 487.096893,88.481438 
	C488.173798,94.102638 490.199860,99.443764 492.934601,104.535118 
	C494.131104,106.762695 495.228394,106.919769 497.000000,105.500000 
"/>
<path fill="none" opacity="1.000000" stroke="#000000" stroke-linecap="round" stroke-linejoin="round" stroke-width="3.000000"
	d="
M1262.000000,440.500000 
	C1260.310913,442.541199 1259.782104,444.867340 1259.965820,447.502380 
	C1260.178833,450.558472 1259.011719,453.199127 1257.009888,455.508575 
	C1255.722900,456.993225 1254.337036,457.660339 1252.498779,456.501892 
	C1251.112183,455.628082 1251.365723,454.422424 1251.439331,452.996857 
	C1251.826172,445.505585 1254.333008,438.055542 1252.000000,430.500000 
"/>
<path fill="none" opacity="1.000000" stroke="#000000" stroke-linecap="round" stroke-linejoin="round" stroke-width="3.000000"
	d="
M144.500000,439.500000 
	C146.020096,444.137299 143.823364,448.499695 143.517242,453.001160 
	C143.075836,459.491272 141.601273,465.949738 142.951599,472.509949 
	C143.148315,473.465668 143.003220,474.745544 144.013535,474.922943 
	C145.630936,475.206848 147.220352,474.880615 148.563995,476.445038 
	C149.759048,477.836487 147.274323,480.637329 152.082657,480.658386 
	C155.380508,479.597473 154.939255,475.088074 155.945480,471.484772 
	C156.234238,470.450684 155.814682,469.216003 157.000000,468.500000 
"/>
<path fill="none" opacity="1.000000" stroke="#000000" stroke-linecap="round" stroke-linejoin="round" stroke-width="3.000000"
	d="
M1043.500000,444.000000 
	C1047.257935,448.679810 1048.072388,454.517609 1048.201172,460.007019 
	C1048.283081,463.487762 1049.058594,466.694427 1049.634399,469.976410 
	C1049.811035,470.982422 1049.806641,472.003601 1049.989258,473.001953 
	C1050.366089,475.062683 1049.367310,476.544250 1047.485352,476.928406 
	C1045.437866,477.346497 1044.249390,475.955475 1044.044922,473.995300 
	C1043.940674,472.994537 1043.937622,472.091614 1043.000000,471.500000 
"/>
<path fill="none" opacity="1.000000" stroke="#000000" stroke-linecap="round" stroke-linejoin="round" stroke-width="3.000000"
	d="
M1163.500000,771.500000 
	C1158.505737,770.275574 1154.348755,772.562317 1149.950928,774.381226 
	C1147.551147,775.373657 1146.424194,776.377991 1146.440186,779.000366 
	C1146.454224,781.287109 1146.779175,782.759216 1149.492065,783.069092 
	C1151.633545,783.313538 1152.424316,787.248352 1155.500000,785.500000 
"/>
<path fill="none" opacity="1.000000" stroke="#000000" stroke-linecap="round" stroke-linejoin="round" stroke-width="3.000000"
	d="
M179.500000,194.500000 
	C178.398270,199.468826 179.187576,204.501007 179.035736,209.501083 
	C178.930130,212.978104 178.318314,216.296997 177.000000,219.500000 
"/>
<path fill="none" opacity="1.000000" stroke="#000000" stroke-linecap="round" stroke-linejoin="round" stroke-width="4.000000"
	d="
M1036.000000,445.500000 
	C1037.750000,453.666656 1039.500000,461.833344 1041.250000,470.000000 
"/>
<path fill="none" opacity="1.000000" stroke="#000000" stroke-linecap="round" stroke-linejoin="round" stroke-width="3.000000"
	d="
M1292.000000,440.500000 
	C1291.446533,448.437164 1294.670288,456.043060 1294.033569,464.002686 
	C1293.821533,466.652374 1294.197510,469.352264 1293.944458,471.994690 
	C1293.691040,474.641022 1292.361816,476.117889 1289.500000,474.500000 
"/>
<path fill="none" opacity="1.000000" stroke="#000000" stroke-linecap="round" stroke-linejoin="round" stroke-width="3.000000"
	d="
M1258.000000,195.500000 
	C1258.050049,203.012589 1257.671753,210.546280 1259.030640,217.994415 
	C1259.129639,218.537140 1259.666748,218.999969 1260.000000,219.499969 
"/>
<path fill="none" opacity="1.000000" stroke="#000000" stroke-linecap="round" stroke-linejoin="round" stroke-width="3.000000"
	d="
M531.000000,423.500000 
	C537.961548,428.776276 545.790833,431.786896 554.500000,432.500000 
"/>
<path fill="none" opacity="1.000000" stroke="#000000" stroke-linecap="round" stroke-linejoin="round" stroke-width="3.000000"
	d="
M523.000000,423.500000 
	C516.145081,429.054657 508.185425,431.724915 499.500000,432.500000 
"/>
<path fill="none" opacity="1.000000" stroke="#000000" stroke-linecap="round" stroke-linejoin="round" stroke-width="3.000000"
	d="
M511.500000,707.500000 
	C512.240723,716.544800 513.231262,725.148865 519.796326,732.677612 
	C525.432068,739.140564 525.426697,747.497437 521.986084,755.494019 
	C519.766846,760.652039 511.557587,762.729187 506.500000,759.500000 
"/>
<path fill="none" opacity="1.000000" stroke="#000000" stroke-linecap="round" stroke-linejoin="round" stroke-width="2.000000"
	d="
M474.500000,425.500000 
	C480.460236,430.952637 487.798706,432.270538 495.500000,432.500000 
"/>
<path fill="none" opacity="1.000000" stroke="#000000" stroke-linecap="round" stroke-linejoin="round" stroke-width="2.000000"
	d="
M580.500000,426.500000 
	C574.017883,430.312622 567.100342,432.601288 559.500000,432.500000 
"/>
<path fill="none" opacity="1.000000" stroke="#000000" stroke-linecap="round" stroke-linejoin="round" stroke-width="2.000000"
	d="
M889.500000,568.500000 
	C887.529114,575.090637 888.784302,582.487732 884.500000,588.500000 
"/>
<path fill="none" opacity="1.000000" stroke="#000000" stroke-linecap="round" stroke-linejoin="round" stroke-width="2.000000"
	d="
M1213.000000,106.500000 
	C1211.140015,109.213333 1211.656982,112.788414 1209.945923,115.465416 
	C1207.471802,119.336372 1203.727295,121.787849 1199.500000,123.500000 
"/>
<path fill="none" opacity="1.000000" stroke="#000000" stroke-linecap="round" stroke-linejoin="round" stroke-width="3.000000"
	d="
M1030.000000,455.500000 
	C1031.333374,459.833344 1032.946777,464.106018 1033.902466,468.521088 
	C1034.551636,471.519531 1036.244141,473.356659 1038.298584,475.153381 
	C1039.489258,474.244598 1040.278564,473.485535 1040.134155,471.987061 
	C1040.104736,471.681396 1040.498535,469.053040 1042.500000,470.500000 
"/>
<path fill="none" opacity="1.000000" stroke="#000000" stroke-linecap="round" stroke-linejoin="round" stroke-width="2.000000"
	d="
M557.000000,99.500000 
	C552.050842,105.376923 546.192871,110.474831 542.045288,117.071266 
	C540.488159,116.019104 538.994080,115.009552 537.500000,113.999992 
"/>
<path fill="none" opacity="1.000000" stroke="#000000" stroke-linecap="round" stroke-linejoin="round" stroke-width="2.000000"
	d="
M224.000000,106.500000 
	C226.409271,110.792450 226.156891,116.358810 230.912689,119.627052 
	C232.760864,120.897141 235.387726,121.175209 236.500000,123.500000 
"/>
<path fill="none" opacity="1.000000" stroke="#000000" stroke-linecap="round" stroke-linejoin="round" stroke-width="2.000000"
	d="
M899.500000,165.500000 
	C900.666687,167.166672 901.751282,168.898727 903.016907,170.486511 
	C905.753357,173.919586 906.948425,173.772614 910.053467,170.551544 
	C911.502991,169.047821 911.764526,167.215591 912.500000,165.500000 
"/>
<path fill="none" opacity="1.000000" stroke="#000000" stroke-linecap="round" stroke-linejoin="round" stroke-width="2.000000"
	d="
M865.000000,569.000000 
	C867.760071,573.984802 867.057495,579.723145 868.397827,585.025818 
	C868.643921,585.999451 869.587158,586.498474 869.500000,587.500000 
"/>
<path fill="none" opacity="1.000000" stroke="#000000" stroke-linecap="round" stroke-linejoin="round" stroke-width="2.000000"
	d="
M944.500000,165.500000 
	C938.500000,166.166656 932.500000,166.833328 926.500000,167.500000 
"/>
<path fill="none" opacity="1.000000" stroke="#000000" stroke-linecap="round" stroke-linejoin="round" stroke-width="3.000000"
	d="
M504.000000,121.500000 
	C500.799072,119.767128 500.818787,116.458633 499.960480,113.511505 
	C498.718109,109.245537 496.971954,105.094063 498.188141,100.170700 
	C502.058685,106.715805 509.769104,109.508133 513.000000,116.500000 
"/>
<path fill="none" opacity="1.000000" stroke="#000000" stroke-linecap="round" stroke-linejoin="round" stroke-width="2.000000"
	d="
M504.500031,187.500000 
	C504.166687,193.166672 503.833344,198.833328 503.500031,204.500000 
"/>
<path fill="none" opacity="1.000000" stroke="#000000" stroke-linecap="round" stroke-linejoin="round" stroke-width="2.000000"
	d="
M886.500000,167.500000 
	C880.732971,167.686172 875.155090,166.265152 869.500000,165.500000 
"/>
<path fill="none" opacity="1.000000" stroke="#000000" stroke-linecap="round" stroke-linejoin="round" stroke-width="2.000000"
	d="
M1166.500000,773.500000 
	C1160.634277,775.770020 1154.066284,776.857239 1150.500000,783.000000 
"/>
<path fill="none" opacity="1.000000" stroke="#000000" stroke-linecap="round" stroke-linejoin="round" stroke-width="2.000000"
	d="
M271.500000,773.500000 
	C276.915802,776.070923 283.372040,776.850037 287.000000,782.500000 
"/>
<path fill="none" opacity="1.000000" stroke="#000000" stroke-linecap="round" stroke-linejoin="round" stroke-width="2.000000"
	d="
M1038.500000,433.500000 
	C1033.322388,433.327850 1028.106934,431.982849 1023.000000,434.000000 
"/>
<path fill="none" opacity="1.000000" stroke="#000000" stroke-linecap="round" stroke-linejoin="round" stroke-width="3.000000"
	d="
M1226.500000,96.999985 
	C1224.000000,99.666649 1221.793945,102.735771 1218.893677,104.854416 
	C1217.048706,106.202156 1213.760986,107.924622 1212.500000,103.500000 
"/>
<path fill="none" opacity="1.000000" stroke="#000000" stroke-linecap="round" stroke-linejoin="round" stroke-width="2.000000"
	d="
M946.000000,569.000000 
	C944.532104,574.064331 942.724792,579.073914 943.500000,584.500000 
"/>
<path fill="none" opacity="1.000000" stroke="#000000" stroke-linecap="round" stroke-linejoin="round" stroke-width="4.000000"
	d="
M767.500000,444.500000 
	C766.166687,449.666656 764.833313,454.833344 763.500000,460.000000 
"/>
<path fill="none" opacity="1.000000" stroke="#000000" stroke-linecap="round" stroke-linejoin="round" stroke-width="3.000000"
	d="
M656.000000,460.500000 
	C657.000000,463.166687 658.329651,465.763519 658.913086,468.518402 
	C659.579346,471.663971 661.152588,473.741608 663.999023,474.999298 
	C665.701416,474.424622 664.304993,472.079041 666.000000,471.500000 
"/>
<path fill="none" opacity="1.000000" stroke="#000000" stroke-linecap="round" stroke-linejoin="round" stroke-width="2.000000"
	d="
M645.500000,420.500000 
	C647.594360,425.294281 647.648621,430.932739 651.500000,435.000000 
"/>
<path fill="none" opacity="1.000000" stroke="#000000" stroke-linecap="round" stroke-linejoin="round" stroke-width="2.000000"
	d="
M534.500000,287.500000 
	C537.954956,292.322296 541.004700,297.489838 546.000000,301.000000 
"/>
<path fill="none" opacity="1.000000" stroke="#000000" stroke-linecap="round" stroke-linejoin="round" stroke-width="2.000000"
	d="
M789.500000,433.500000 
	C784.833313,432.151550 780.166687,433.974976 775.500000,433.500000 
"/>
<path fill="none" opacity="1.000000" stroke="#000000" stroke-linecap="round" stroke-linejoin="round" stroke-width="2.000000"
	d="
M548.000000,715.000000 
	C546.641235,719.666687 547.974426,724.333313 548.000000,729.000000 
"/>
<path fill="none" opacity="1.000000" stroke="#000000" stroke-linecap="round" stroke-linejoin="round" stroke-width="2.000000"
	d="
M505.500000,713.500000 
	C506.718842,718.464905 505.364685,723.518799 506.021484,728.497192 
	C506.198730,729.840698 505.224518,730.406616 504.474609,730.965942 
	C501.705566,733.031067 500.476685,736.088135 499.000000,739.000000 
"/>
<path fill="none" opacity="1.000000" stroke="#000000" stroke-linecap="round" stroke-linejoin="round" stroke-width="2.000000"
	d="
M1169.500000,776.500000 
	C1164.152588,777.736755 1159.196533,779.633667 1156.000000,784.500000 
"/>
<path fill="none" opacity="1.000000" stroke="#000000" stroke-linecap="round" stroke-linejoin="round" stroke-width="2.000000"
	d="
M211.500000,84.500000 
	C212.673157,81.682251 215.282715,80.213562 217.312027,82.192734 
	C219.028809,83.867088 222.569839,86.305809 219.095032,90.087318 
	C217.193634,92.156532 218.932953,95.162979 222.500000,97.000000 
"/>
<path fill="none" opacity="1.000000" stroke="#000000" stroke-linecap="round" stroke-linejoin="round" stroke-width="2.000000"
	d="
M521.000000,288.000031 
	C517.166687,292.500031 513.333374,297.000031 509.500031,301.500031 
"/>
<path fill="none" opacity="1.000000" stroke="#000000" stroke-linecap="round" stroke-linejoin="round" stroke-width="3.000000"
	d="
M413.500000,410.500000 
	C410.108582,419.211609 409.115204,428.234070 410.000000,437.500000 
"/>
<path fill="none" opacity="1.000000" stroke="#000000" stroke-linecap="round" stroke-linejoin="round" stroke-width="3.000000"
	d="
M565.500000,81.500000 
	C562.180420,86.506874 560.667419,92.390800 557.723572,97.625717 
	C556.664307,99.509293 558.166626,102.833336 558.500000,105.500000 
"/>
<path fill="none" opacity="1.000000" stroke="#000000" stroke-linecap="round" stroke-linejoin="round" stroke-width="3.000000"
	d="
M897.500000,87.000000 
	C893.166687,87.025757 888.833313,86.283524 884.500000,87.000000 
"/>
<path fill="none" opacity="1.000000" stroke="#000000" stroke-linecap="round" stroke-linejoin="round" stroke-width="3.000000"
	d="
M493.000000,87.500000 
	C494.833344,91.666664 496.666656,95.833336 498.500000,100.000000 
"/>
<path fill="none" opacity="1.000000" stroke="#000000" stroke-linecap="round" stroke-linejoin="round" stroke-width="2.000000"
	d="
M504.500000,563.500000 
	C505.166687,567.500000 505.833344,571.500000 506.500000,575.500000 
"/>
<path fill="none" opacity="1.000000" stroke="#000000" stroke-linecap="round" stroke-linejoin="round" stroke-width="3.000000"
	d="
M929.000000,788.500000 
	C929.618896,791.799805 931.761597,794.296021 933.510620,796.993103 
	C934.477844,798.484741 934.250977,799.472534 932.500000,800.000000 
"/>
<path fill="none" opacity="1.000000" stroke="#000000" stroke-linecap="round" stroke-linejoin="round" stroke-width="2.000000"
	d="
M876.500000,787.500000 
	C873.487427,789.983948 872.108826,793.504211 871.128967,797.035767 
	C870.653625,798.749084 871.056946,800.557922 868.506897,799.970093 
	C866.166260,799.430420 865.055786,798.330444 865.898193,795.470032 
	C866.957703,791.872803 868.763367,788.726868 870.500000,785.500000 
"/>
<path fill="none" opacity="1.000000" stroke="#000000" stroke-linecap="round" stroke-linejoin="round" stroke-width="2.000000"
	d="
M265.500000,778.500000 
	C269.064514,780.694214 272.881836,782.404297 275.108398,786.440186 
	C276.444611,788.862122 276.926636,788.596191 281.000000,786.000000 
"/>
<path fill="none" opacity="1.000000" stroke="#000000" stroke-linecap="round" stroke-linejoin="round" stroke-width="2.000000"
	d="
M906.000000,49.000000 
	C899.678101,49.615517 893.386414,50.370609 887.500000,53.000000 
"/>
<path fill="none" opacity="1.000000" stroke="#000000" stroke-linecap="round" stroke-linejoin="round" stroke-width="2.000000"
	d="
M544.500000,727.500000 
	C551.146973,729.311523 552.280823,735.788025 555.500000,740.500000 
"/>
<path fill="none" opacity="1.000000" stroke="#000000" stroke-linecap="round" stroke-linejoin="round" stroke-width="2.000000"
	d="
M554.500000,573.000000 
	C550.607788,574.306885 546.351379,575.053406 544.500000,579.500000 
"/>
<path fill="none" opacity="1.000000" stroke="#000000" stroke-linecap="round" stroke-linejoin="round" stroke-width="2.000000"
	d="
M434.500000,300.500000 
	C433.500000,304.166656 432.500000,307.833344 431.500000,311.500000 
"/>
<path fill="none" opacity="1.000000" stroke="#000000" stroke-linecap="round" stroke-linejoin="round" stroke-width="2.000000"
	d="
M1259.000000,293.500000 
	C1257.488647,297.699554 1259.817627,301.026306 1261.500000,304.500000 
"/>
<path fill="none" opacity="1.000000" stroke="#000000" stroke-linecap="round" stroke-linejoin="round" stroke-width="2.000000"
	d="
M936.000000,788.000000 
	C938.490295,791.261536 940.309875,794.797485 940.500000,799.000000 
"/>
<path fill="none" opacity="1.000000" stroke="#000000" stroke-linecap="round" stroke-linejoin="round" stroke-width="2.000000"
	d="
M940.500000,385.500000 
	C937.166687,389.166687 933.833374,392.833344 930.500000,396.500000 
"/>
<path fill="none" opacity="1.000000" stroke="#000000" stroke-linecap="round" stroke-linejoin="round" stroke-width="3.000000"
	d="
M262.000000,75.500000 
	C258.138641,72.038918 254.986618,76.026123 251.500000,76.500000 
"/>
<path fill="none" opacity="1.000000" stroke="#000000" stroke-linecap="round" stroke-linejoin="round" stroke-width="3.000000"
	d="
M883.500000,788.500000 
	C880.940369,793.053528 877.424622,797.128967 876.500000,802.500000 
"/>
<path fill="none" opacity="1.000000" stroke="#000000" stroke-linecap="round" stroke-linejoin="round" stroke-width="2.000000"
	d="
M1172.500000,779.500000 
	C1168.364380,779.796631 1165.817139,782.399353 1163.468506,785.476013 
	C1161.455566,788.112976 1159.062988,789.048645 1156.500000,786.000000 
"/>
<path fill="none" opacity="1.000000" stroke="#000000" stroke-linecap="round" stroke-linejoin="round" stroke-width="3.000000"
	d="
M266.500000,393.500000 
	C267.333313,396.833344 268.166656,400.166656 269.000000,403.500000 
"/>
<path fill="none" opacity="1.000000" stroke="#000000" stroke-linecap="round" stroke-linejoin="round" stroke-width="5.000000"
	d="
M944.500000,82.500000 
	C940.159424,84.265694 939.998962,87.657013 941.000000,91.500000 
"/>
<path fill="none" opacity="1.000000" stroke="#000000" stroke-linecap="round" stroke-linejoin="round" stroke-width="2.000000"
	d="
M549.500000,348.500000 
	C545.421326,350.314026 542.641541,353.579773 540.000000,357.000000 
"/>
<path fill="none" opacity="1.000000" stroke="#000000" stroke-linecap="round" stroke-linejoin="round" stroke-width="2.000000"
	d="
M488.500000,564.500000 
	C488.408875,568.595947 487.902740,572.622681 486.500000,576.500000 
"/>
<path fill="none" opacity="1.000000" stroke="#000000" stroke-linecap="round" stroke-linejoin="round" stroke-width="2.000000"
	d="
M867.500000,381.500031 
	C870.500000,384.833344 873.500000,388.166687 876.500000,391.500031 
"/>
<path fill="none" opacity="1.000000" stroke="#000000" stroke-linecap="round" stroke-linejoin="round" stroke-width="2.000000"
	d="
M497.500000,573.000000 
	C494.206299,572.695496 491.174591,574.050232 488.000000,574.500000 
"/>
<path fill="none" opacity="1.000000" stroke="#000000" stroke-linecap="round" stroke-linejoin="round" stroke-width="3.000000"
	d="
M1184.000000,76.000000 
	C1181.108765,73.049889 1177.787964,74.180901 1174.500000,75.000000 
"/>
<path fill="none" opacity="1.000000" stroke="#000000" stroke-linecap="round" stroke-linejoin="round" stroke-width="2.000000"
	d="
M565.000000,565.000000 
	C566.019104,567.913513 564.910645,571.181580 566.708923,573.837585 
	C564.298462,575.691650 562.884705,573.050781 561.000000,573.000000 
"/>
<path fill="none" opacity="1.000000" stroke="#000000" stroke-linecap="round" stroke-linejoin="round" stroke-width="3.000000"
	d="
M896.500000,116.500000 
	C897.666687,116.908569 898.741150,117.403641 900.022522,116.533112 
	C901.765564,115.348846 903.462158,114.621712 905.551208,116.441223 
	C908.228821,118.773392 909.854187,114.041656 912.500000,115.000000 
"/>
<path fill="none" opacity="1.000000" stroke="#000000" stroke-linecap="round" stroke-linejoin="round" stroke-width="2.000000"
	d="
M623.000000,299.500000 
	C624.000000,302.666656 625.000000,305.833344 626.000000,309.000000 
"/>
<path fill="none" opacity="1.000000" stroke="#000000" stroke-linecap="round" stroke-linejoin="round" stroke-width="3.000000"
	d="
M209.500000,96.500000 
	C206.618759,97.559380 208.671082,101.357529 206.457458,102.410561 
	C203.627228,103.756897 202.174942,106.601440 199.500000,108.000000 
"/>
<path fill="none" opacity="1.000000" stroke="#000000" stroke-linecap="round" stroke-linejoin="round" stroke-width="2.000000"
	d="
M1031.500000,417.500000 
	C1032.963257,421.248047 1036.030518,423.580902 1039.000000,426.000000 
"/>
<path fill="none" opacity="1.000000" stroke="#000000" stroke-linecap="round" stroke-linejoin="round" stroke-width="2.000000"
	d="
M921.500000,77.500000 
	C918.099243,76.363396 915.832764,80.330666 912.500000,79.500000 
"/>
<path fill="none" opacity="1.000000" stroke="#000000" stroke-linecap="round" stroke-linejoin="round" stroke-width="2.000000"
	d="
M940.500000,785.500000 
	C943.083618,787.557129 944.024292,790.538391 945.000000,793.500000 
"/>
<path fill="none" opacity="1.000000" stroke="#000000" stroke-linecap="round" stroke-linejoin="round" stroke-width="2.000000"
	d="
M866.500000,783.500000 
	C863.448364,785.069031 863.888916,788.733337 862.000000,791.000000 
"/>
<path fill="none" opacity="1.000000" stroke="#000000" stroke-linecap="round" stroke-linejoin="round" stroke-width="2.000000"
	d="
M486.500000,177.500000 
	C490.398773,179.136963 493.647247,182.724945 498.500000,181.500000 
"/>
<path fill="none" opacity="1.000000" stroke="#000000" stroke-linecap="round" stroke-linejoin="round" stroke-width="2.000000"
	d="
M488.500000,789.500000 
	C489.437531,792.056091 493.155029,792.687561 493.000000,796.000000 
"/>
<path fill="none" opacity="1.000000" stroke="#000000" stroke-linecap="round" stroke-linejoin="round" stroke-width="2.000000"
	d="
M945.500000,782.500000 
	C946.666687,784.833313 947.833313,787.166687 949.000000,789.500000 
"/>
<path fill="none" opacity="1.000000" stroke="#000000" stroke-linecap="round" stroke-linejoin="round" stroke-width="3.000000"
	d="
M869.500000,81.000000 
	C872.219482,84.384773 871.994385,88.537697 872.500000,92.500000 
"/>
<path fill="none" opacity="1.000000" stroke="#000000" stroke-linecap="round" stroke-linejoin="round" stroke-width="2.000000"
	d="
M1207.500000,204.500000 
	C1207.641602,206.828217 1210.807251,208.225967 1209.500000,211.000000 
"/>
<path fill="none" opacity="1.000000" stroke="#000000" stroke-linecap="round" stroke-linejoin="round" stroke-width="2.000000"
	d="
M508.500000,579.500000 
	C507.088837,575.116760 503.580322,573.879517 499.500000,573.500000 
"/>
<path fill="none" opacity="1.000000" stroke="#000000" stroke-linecap="round" stroke-linejoin="round" stroke-width="3.000000"
	d="
M928.500000,87.000000 
	C924.639648,85.496284 920.276428,86.406517 916.500000,84.500000 
"/>
<path fill="none" opacity="1.000000" stroke="#000000" stroke-linecap="round" stroke-linejoin="round" stroke-width="3.000000"
	d="
M1236.500000,108.000000 
	C1238.427612,109.018578 1240.559570,109.715828 1242.000000,111.500000 
"/>
<path fill="none" opacity="1.000000" stroke="#000000" stroke-linecap="round" stroke-linejoin="round" stroke-width="3.000000"
	d="
M533.500000,758.000000 
	C535.968567,758.062866 536.758911,761.482117 539.500000,761.000000 
"/>
<path fill="none" opacity="1.000000" stroke="#000000" stroke-linecap="round" stroke-linejoin="round" stroke-width="2.000000"
	d="
M1223.500000,81.500000 
	C1219.920410,80.959068 1218.938843,84.170975 1216.704346,85.690208 
	C1219.130737,89.609398 1220.938477,93.203415 1216.500000,96.500000 
"/>
<path fill="none" opacity="1.000000" stroke="#000000" stroke-linecap="round" stroke-linejoin="round" stroke-width="2.000000"
	d="
M1179.500000,83.500000 
	C1179.198975,85.016136 1178.916992,86.541817 1177.500000,87.500000 
"/>
<path fill="none" opacity="1.000000" stroke="#000000" stroke-linecap="round" stroke-linejoin="round" stroke-width="3.000000"
	d="
M260.000000,79.500000 
	C258.629120,82.091400 257.004089,84.666924 259.500000,87.500000 
"/>
<path fill="none" opacity="1.000000" stroke="#000000" stroke-linecap="round" stroke-linejoin="round" stroke-width="3.000000"
	d="
M508.000000,798.000000 
	C507.862610,800.014648 508.192902,801.665222 505.632385,803.218262 
	C502.468170,805.137451 502.480591,802.058167 501.000000,801.500000 
"/>
<path fill="none" opacity="1.000000" stroke="#000000" stroke-linecap="round" stroke-linejoin="round" stroke-width="2.000000"
	d="
M511.500000,727.500000 
	C512.797302,727.955017 513.963745,729.456665 515.500000,728.000000 
"/>
<path fill="none" opacity="1.000000" stroke="#000000" stroke-linecap="round" stroke-linejoin="round" stroke-width="2.000000"
	d="
M493.500000,98.500000 
	C494.079895,100.184570 495.446014,100.951874 497.000000,101.500000 
"/>
<path fill="none" opacity="1.000000" stroke="#000000" stroke-linecap="round" stroke-linejoin="round" stroke-width="2.000000"
	d="
M553.000000,801.000000 
	C551.835144,802.002075 550.670227,803.004150 549.502686,804.003052 
	C546.477905,803.141541 545.663086,800.627686 545.000000,798.000000 
"/>
<path fill="none" opacity="1.000000" stroke="#000000" stroke-linecap="round" stroke-linejoin="round" stroke-width="2.000000"
	d="
M870.000000,801.000000 
	C871.572449,802.384094 872.778992,804.774353 875.500000,803.000000 
"/>
<path fill="none" opacity="1.000000" stroke="#000000" stroke-linecap="round" stroke-linejoin="round" stroke-width="2.000000"
	d="
M565.500000,789.500000 
	C564.333374,790.500000 563.166687,791.500000 562.000000,792.500000 
"/>
<path fill="none" opacity="1.000000" stroke="#000000" stroke-linecap="round" stroke-linejoin="round" stroke-width="3.000000"
	d="
M941.500122,800.500122 
	C940.333435,801.666748 939.166748,802.833435 937.996399,804.004272 
	C936.148132,803.425903 935.243896,801.768860 934.000000,800.500000 
"/>
</svg>